<svg width="24" height="24" viewBox="0 0 24 24" fill="none" xmlns="http://www.w3.org/2000/svg">
<path d="M20.9996 12C20.9996 12.1989 20.9206 12.3897 20.7799 12.5303C20.6393 12.671 20.4485 12.75 20.2496 12.75H11.2496V18.75C11.2497 18.8984 11.2058 19.0436 11.1234 19.167C11.041 19.2904 10.9238 19.3867 10.7867 19.4435C10.6496 19.5003 10.4987 19.5151 10.3531 19.4862C10.2076 19.4572 10.0739 19.3856 9.96899 19.2806L3.21899 12.5306C3.14926 12.461 3.09394 12.3783 3.05619 12.2872C3.01845 12.1962 2.99902 12.0986 2.99902 12C2.99902 11.9014 3.01845 11.8039 3.05619 11.7128C3.09394 11.6218 3.14926 11.539 3.21899 11.4694L9.96899 4.71939C10.0739 4.61438 10.2076 4.54285 10.3531 4.51386C10.4987 4.48488 10.6496 4.49973 10.7867 4.55654C10.9238 4.61336 11.041 4.70958 11.1234 4.83302C11.2058 4.95647 11.2497 5.10159 11.2496 5.25001V11.25H20.2496C20.4485 11.25 20.6393 11.329 20.7799 11.4697C20.9206 11.6103 20.9996 11.8011 20.9996 12Z" fill="#E6E6E6"/>
</svg>
