<svg width="393" height="551" viewBox="0 0 393 551" fill="none" xmlns="http://www.w3.org/2000/svg">
<rect x="-138.842" y="137.615" width="334.38" height="614.552" rx="7.38218" transform="rotate(-47.9908 -138.842 137.615)" stroke="white" stroke-opacity="0.42" stroke-width="1.64048"/>
<line x1="88.3176" y1="343.32" x2="313.199" y2="93.6445" stroke="white" stroke-opacity="0.42" stroke-width="1.64048"/>
<line x1="-39.3882" y1="131.838" x2="89.5606" y2="-11.3277" stroke="white" stroke-opacity="0.42" stroke-width="1.64048"/>
<line x1="-29.7453" y1="64.1084" x2="23.1076" y2="5.42832" stroke="white" stroke-opacity="0.42" stroke-width="1.64048"/>
<line x1="22.8449" y1="6.29557" x2="-1.73014" y2="-15.8391" stroke="white" stroke-opacity="0.42" stroke-width="1.64048"/>
<line x1="441.432" y1="305.601" x2="312.483" y2="448.767" stroke="white" stroke-opacity="0.42" stroke-width="1.64048"/>
<line x1="313.115" y1="448.232" x2="365.678" y2="495.576" stroke="white" stroke-opacity="0.42" stroke-width="1.64048"/>
<line x1="431.789" y1="373.331" x2="378.936" y2="432.011" stroke="white" stroke-opacity="0.42" stroke-width="1.64048"/>
<line x1="379.199" y1="431.144" x2="403.774" y2="453.279" stroke="white" stroke-opacity="0.42" stroke-width="1.64048"/>
<circle cx="201.679" cy="218.686" r="61.5437" transform="rotate(-47.9908 201.679 218.686)" stroke="white" stroke-opacity="0.42" stroke-width="1.64048"/>
<mask id="path-11-inside-1_20_6640" fill="white">
<path d="M46.2185 37.3236C52.3634 42.8583 56.0579 50.6073 56.4894 58.866C56.9209 67.1247 54.054 75.2166 48.5193 81.3615C42.9846 87.5064 35.2356 91.2009 26.9769 91.6324C18.7182 92.0639 10.6263 89.197 4.48143 83.6623L5.86286 82.1286C11.601 87.2969 19.1572 89.974 26.8692 89.5711C34.5812 89.1682 41.8173 85.7182 46.9856 79.98C52.1539 74.2419 54.831 66.6857 54.4281 58.9737C54.0252 51.2617 50.5751 44.0256 44.837 38.8573L46.2185 37.3236Z"/>
</mask>
<path d="M46.2185 37.3236C52.3634 42.8583 56.0579 50.6073 56.4894 58.866C56.9209 67.1247 54.054 75.2166 48.5193 81.3615C42.9846 87.5064 35.2356 91.2009 26.9769 91.6324C18.7182 92.0639 10.6263 89.197 4.48143 83.6623L5.86286 82.1286C11.601 87.2969 19.1572 89.974 26.8692 89.5711C34.5812 89.1682 41.8173 85.7182 46.9856 79.98C52.1539 74.2419 54.831 66.6857 54.4281 58.9737C54.0252 51.2617 50.5751 44.0256 44.837 38.8573L46.2185 37.3236Z" stroke="white" stroke-opacity="0.42" stroke-width="68.9003" mask="url(#path-11-inside-1_20_6640)"/>
<mask id="path-12-inside-2_20_6640" fill="white">
<path d="M355.826 400.116C349.681 394.582 345.986 386.833 345.555 378.574C345.123 370.315 347.99 362.223 353.525 356.078C359.059 349.933 366.808 346.239 375.067 345.807C383.326 345.376 391.418 348.243 397.563 353.778L396.181 355.311C390.443 350.143 382.887 347.466 375.175 347.869C367.463 348.272 360.227 351.722 355.059 357.46C349.89 363.198 347.213 370.754 347.616 378.466C348.019 386.178 351.469 393.414 357.207 398.582L355.826 400.116Z"/>
</mask>
<path d="M355.826 400.116C349.681 394.582 345.986 386.833 345.555 378.574C345.123 370.315 347.99 362.223 353.525 356.078C359.059 349.933 366.808 346.239 375.067 345.807C383.326 345.376 391.418 348.243 397.563 353.778L396.181 355.311C390.443 350.143 382.887 347.466 375.175 347.869C367.463 348.272 360.227 351.722 355.059 357.46C349.89 363.198 347.213 370.754 347.616 378.466C348.019 386.178 351.469 393.414 357.207 398.582L355.826 400.116Z" stroke="white" stroke-opacity="0.42" stroke-width="68.9003" mask="url(#path-12-inside-2_20_6640)"/>
</svg>
