<svg width="361" height="662" viewBox="0 0 361 662" fill="none" xmlns="http://www.w3.org/2000/svg">
<rect width="361" height="662" rx="10" fill="#191919"/>
<rect x="1" y="1" width="359" height="660" rx="9" stroke="white" stroke-opacity="0.42" stroke-width="2"/>
<line x1="8.74228e-08" y1="330" x2="361" y2="330" stroke="white" stroke-opacity="0.42" stroke-width="2"/>
<line x1="77" y1="76" x2="284" y2="76" stroke="white" stroke-opacity="0.42" stroke-width="2"/>
<line x1="283" y1="76" x2="283" y2="-2.93521e-08" stroke="white" stroke-opacity="0.42" stroke-width="2"/>
<line x1="78.9785" y1="76" x2="78.9785" y2="-2.93521e-08" stroke="white" stroke-opacity="0.42" stroke-width="2"/>
<line x1="138" y1="35" x2="222.844" y2="35" stroke="white" stroke-opacity="0.42" stroke-width="2"/>
<line x1="221.844" y1="35.5325" x2="221.844" y2="7.59591e-06" stroke="white" stroke-opacity="0.42" stroke-width="2"/>
<line x1="138.221" y1="35.5325" x2="138.221" y2="7.59591e-06" stroke="white" stroke-opacity="0.42" stroke-width="2"/>
<line x1="284" y1="585" x2="77" y2="585" stroke="white" stroke-opacity="0.42" stroke-width="2"/>
<line x1="78" y1="585" x2="78" y2="661" stroke="white" stroke-opacity="0.42" stroke-width="2"/>
<line x1="283.021" y1="585" x2="283.021" y2="661" stroke="white" stroke-opacity="0.42" stroke-width="2"/>
<line x1="223" y1="626" x2="138.156" y2="626" stroke="white" stroke-opacity="0.42" stroke-width="2"/>
<line x1="139.156" y1="625.468" x2="139.156" y2="661" stroke="white" stroke-opacity="0.42" stroke-width="2"/>
<line x1="222.779" y1="625.468" x2="222.779" y2="661" stroke="white" stroke-opacity="0.42" stroke-width="2"/>
<circle cx="181" cy="331" r="66" stroke="white" stroke-opacity="0.42" stroke-width="2"/>
<mask id="path-17-inside-1_20_2665" fill="white">
<path d="M214 76.5C214 85.3847 210.471 93.9056 204.188 100.188C197.906 106.471 189.385 110 180.5 110C171.615 110 163.094 106.471 156.812 100.188C150.529 93.9056 147 85.3848 147 76.5H149.218C149.218 84.7966 152.513 92.7534 158.38 98.62C164.247 104.487 172.203 107.782 180.5 107.782C188.797 107.782 196.753 104.487 202.62 98.62C208.487 92.7534 211.782 84.7966 211.782 76.5H214Z"/>
</mask>
<path d="M214 76.5C214 85.3847 210.471 93.9056 204.188 100.188C197.906 106.471 189.385 110 180.5 110C171.615 110 163.094 106.471 156.812 100.188C150.529 93.9056 147 85.3848 147 76.5H149.218C149.218 84.7966 152.513 92.7534 158.38 98.62C164.247 104.487 172.203 107.782 180.5 107.782C188.797 107.782 196.753 104.487 202.62 98.62C208.487 92.7534 211.782 84.7966 211.782 76.5H214Z" stroke="white" stroke-opacity="0.42" stroke-width="84" mask="url(#path-17-inside-1_20_2665)"/>
<mask id="path-18-inside-2_20_2665" fill="white">
<path d="M147 584.5C147 575.615 150.529 567.094 156.812 560.812C163.094 554.529 171.615 551 180.5 551C189.385 551 197.906 554.529 204.188 560.812C210.471 567.094 214 575.615 214 584.5L211.782 584.5C211.782 576.203 208.487 568.247 202.62 562.38C196.753 556.513 188.797 553.218 180.5 553.218C172.203 553.218 164.247 556.513 158.38 562.38C152.513 568.247 149.218 576.203 149.218 584.5L147 584.5Z"/>
</mask>
<path d="M147 584.5C147 575.615 150.529 567.094 156.812 560.812C163.094 554.529 171.615 551 180.5 551C189.385 551 197.906 554.529 204.188 560.812C210.471 567.094 214 575.615 214 584.5L211.782 584.5C211.782 576.203 208.487 568.247 202.62 562.38C196.753 556.513 188.797 553.218 180.5 553.218C172.203 553.218 164.247 556.513 158.38 562.38C152.513 568.247 149.218 576.203 149.218 584.5L147 584.5Z" stroke="white" stroke-opacity="0.42" stroke-width="84" mask="url(#path-18-inside-2_20_2665)"/>
</svg>
