<svg width="24" height="24" viewBox="0 0 24 24" fill="none" xmlns="http://www.w3.org/2000/svg">
<path d="M12 11.25C11.1842 11.25 10.3866 11.0081 9.70827 10.5548C9.02992 10.1016 8.50121 9.45732 8.189 8.70357C7.87679 7.94983 7.7951 7.12043 7.95426 6.32025C8.11343 5.52008 8.50629 4.78508 9.08319 4.20819C9.66008 3.63129 10.3951 3.23843 11.1953 3.07926C11.9954 2.9201 12.8248 3.00179 13.5786 3.314C14.3323 3.62621 14.9766 4.15492 15.4298 4.83327C15.8831 5.51163 16.125 6.30915 16.125 7.125C16.1238 8.21864 15.6888 9.26713 14.9154 10.0404C14.1421 10.8138 13.0936 11.2488 12 11.25ZM17.625 12C16.8092 12 16.0116 12.2419 15.3333 12.6952C14.6549 13.1485 14.1262 13.7927 13.814 14.5464C13.5018 15.3002 13.4201 16.1296 13.5793 16.9297C13.7384 17.7299 14.1313 18.4649 14.7082 19.0418C15.2851 19.6187 16.0201 20.0116 16.8203 20.1707C17.6204 20.3299 18.4498 20.2482 19.2036 19.936C19.9573 19.6238 20.6016 19.0951 21.0548 18.4167C21.5081 17.7384 21.75 16.9408 21.75 16.125C21.7488 15.0314 21.3138 13.9829 20.5404 13.2096C19.7671 12.4362 18.7186 12.0012 17.625 12ZM6.375 12C5.55915 12 4.76163 12.2419 4.08327 12.6952C3.40492 13.1485 2.87621 13.7927 2.564 14.5464C2.25179 15.3002 2.1701 16.1296 2.32926 16.9297C2.48843 17.7299 2.88129 18.4649 3.45819 19.0418C4.03508 19.6187 4.77008 20.0116 5.57025 20.1707C6.37043 20.3299 7.19983 20.2482 7.95357 19.936C8.70732 19.6238 9.35155 19.0951 9.80481 18.4167C10.2581 17.7384 10.5 16.9408 10.5 16.125C10.4988 15.0314 10.0638 13.9829 9.29045 13.2096C8.51713 12.4362 7.46864 12.0012 6.375 12Z" fill="#E6E6E6"/>
</svg>
