<svg width="49" height="48" viewBox="0 0 49 48" fill="none" xmlns="http://www.w3.org/2000/svg">
<g clip-path="url(#clip0_40000038_4021)">
<rect x="0.5" width="48" height="48" rx="24" fill="#2C2E31"/>
<rect x="21.458" y="-2" width="4.82179" height="41.8293" transform="rotate(33.5886 21.458 -2)" fill="white" fill-opacity="0.05"/>
<rect x="14.6406" y="-6" width="4.82179" height="41.8293" transform="rotate(33.5886 14.6406 -6)" fill="white" fill-opacity="0.05"/>
<rect x="30.6406" y="-2" width="4.82179" height="47.3645" transform="rotate(33.5886 30.6406 -2)" fill="white" fill-opacity="0.05"/>
<rect x="40.7031" y="-3" width="4.82179" height="55.92" transform="rotate(33.5886 40.7031 -3)" fill="white" fill-opacity="0.05"/>
<rect x="44.4365" y="6" width="4.82179" height="55.92" transform="rotate(33.5886 44.4365 6)" fill="white" fill-opacity="0.05"/>
<rect x="50.4365" y="11" width="4.82179" height="55.92" transform="rotate(33.5886 50.4365 11)" fill="white" fill-opacity="0.05"/>
<path d="M41.3866 47.0938C41.2714 47.2933 41.1056 47.459 40.9061 47.5742C40.7065 47.6894 40.4801 47.7501 40.2496 47.75H8.74963C8.51935 47.7498 8.29319 47.6889 8.09385 47.5737C7.89451 47.4584 7.72902 47.2927 7.61398 47.0932C7.49895 46.8937 7.43842 46.6674 7.43848 46.4372C7.43854 46.2069 7.49918 45.9807 7.61432 45.7812C10.113 41.4615 13.9635 38.364 18.4572 36.8956C16.2344 35.5724 14.5075 33.5561 13.5415 31.1564C12.5756 28.7567 12.4241 26.1062 13.1103 23.6121C13.7965 21.1179 15.2825 18.918 17.34 17.3501C19.3975 15.7822 21.9128 14.933 24.4996 14.933C27.0865 14.933 29.6018 15.7822 31.6593 17.3501C33.7168 18.918 35.2027 21.1179 35.8889 23.6121C36.5751 26.1062 36.4236 28.7567 35.4577 31.1564C34.4918 33.5561 32.7648 35.5724 30.5421 36.8956C35.0357 38.364 38.8863 41.4615 41.3849 45.7812C41.5004 45.9806 41.5613 46.2069 41.5616 46.4373C41.5619 46.6677 41.5015 46.8941 41.3866 47.0938Z" fill="#F12E36"/>
</g>
<rect x="1" y="0.5" width="47" height="47" rx="23.5" stroke="white" stroke-opacity="0.42"/>
<defs>
<clipPath id="clip0_40000038_4021">
<rect x="0.5" width="48" height="48" rx="24" fill="white"/>
</clipPath>
</defs>
</svg>
