<svg width="30" height="22" viewBox="0 0 30 22" fill="none" xmlns="http://www.w3.org/2000/svg">
<path d="M7.01501 12.4749C7.0184 12.5427 7.00798 12.6104 6.98438 12.674C6.96077 12.7376 6.92448 12.7957 6.87771 12.8448C6.83094 12.8939 6.77466 12.933 6.71231 12.9596C6.64996 12.9863 6.58283 13 6.51501 12.9999H1.00001C0.774308 13.0003 0.555124 12.9243 0.378105 12.7842C0.201086 12.6442 0.0766438 12.4484 0.0250138 12.2287C-0.00713503 12.0783 -0.00565299 11.9227 0.0293538 11.7729C0.0643607 11.6232 0.132027 11.483 0.227514 11.3624C1.10977 10.1924 2.28038 9.27119 3.62501 8.6887C3.03467 8.15045 2.5819 7.47858 2.30461 6.72937C2.02732 5.98015 1.9336 5.1754 2.03128 4.38251C2.12897 3.58962 2.41522 2.83168 2.86606 2.17218C3.31691 1.51267 3.91922 0.970787 4.62255 0.591924C5.32588 0.21306 6.10976 0.00824197 6.90852 -0.00537682C7.70729 -0.0189956 8.49769 0.158981 9.21353 0.513649C9.92937 0.868316 10.5498 1.38935 11.0229 2.0331C11.4959 2.67686 11.8079 3.4246 11.9325 4.2137C11.9486 4.31981 11.9296 4.42828 11.8784 4.5226C11.8272 4.61691 11.7465 4.69192 11.6488 4.7362C10.2618 5.37742 9.08709 6.402 8.26339 7.68904C7.4397 8.97609 7.00133 10.4719 7.00001 11.9999C7.00001 12.1599 7.00001 12.3174 7.01501 12.4749ZM29.765 11.3612C28.8848 10.1925 27.7169 9.27179 26.375 8.6887C26.9654 8.15045 27.4181 7.47858 27.6954 6.72937C27.9727 5.98015 28.0664 5.1754 27.9687 4.38251C27.8711 3.58962 27.5848 2.83168 27.134 2.17218C26.6831 1.51267 26.0808 0.970787 25.3775 0.591924C24.6741 0.21306 23.8903 0.00824197 23.0915 -0.00537682C22.2927 -0.0189956 21.5023 0.158981 20.7865 0.513649C20.0707 0.868316 19.4502 1.38935 18.9772 2.0331C18.5041 2.67686 18.1922 3.4246 18.0675 4.2137C18.0514 4.31981 18.0704 4.42828 18.1216 4.5226C18.1729 4.61691 18.2535 4.69192 18.3513 4.7362C19.7383 5.37742 20.9129 6.402 21.7366 7.68904C22.5603 8.97609 22.9987 10.4719 23 11.9999C23 12.1599 23 12.3174 22.985 12.4749C22.9816 12.5427 22.992 12.6104 23.0156 12.674C23.0393 12.7376 23.0755 12.7957 23.1223 12.8448C23.1691 12.8939 23.2254 12.933 23.2877 12.9596C23.3501 12.9863 23.4172 13 23.485 12.9999H29C29.2257 13.0003 29.4449 12.9243 29.6219 12.7842C29.7989 12.6442 29.9234 12.4484 29.975 12.2287C30.0074 12.078 30.0059 11.9221 29.9706 11.772C29.9354 11.622 29.8673 11.4817 29.7713 11.3612H29.765ZM18.64 16.7587C19.6357 15.9962 20.3674 14.9408 20.7323 13.7409C21.0972 12.541 21.0769 11.257 20.6744 10.0692C20.2718 8.88142 19.5071 7.84965 18.4879 7.11891C17.4686 6.38816 16.246 5.99517 14.9919 5.99517C13.7377 5.99517 12.5151 6.38816 11.4959 7.11891C10.4766 7.84965 9.71198 8.88142 9.30941 10.0692C8.90683 11.257 8.88657 12.541 9.25147 13.7409C9.61636 14.9408 10.3481 15.9962 11.3438 16.7587C9.57693 17.5242 8.10159 18.8353 7.13376 20.4999C7.04599 20.652 6.99978 20.8244 6.99979 21C6.9998 21.1756 7.04602 21.348 7.13382 21.5C7.22161 21.6521 7.34788 21.7783 7.49993 21.8661C7.65198 21.9538 7.82446 22 8.00001 21.9999H22C22.1756 22 22.348 21.9538 22.5001 21.8661C22.6521 21.7783 22.7784 21.6521 22.8662 21.5C22.954 21.348 23.0002 21.1756 23.0002 21C23.0002 20.8244 22.954 20.652 22.8663 20.4999C21.8963 18.8342 20.4183 17.523 18.6488 16.7587H18.64Z" fill="#E6E6E6"/>
</svg>
