<svg width="24" height="24" viewBox="0 0 24 24" fill="none" xmlns="http://www.w3.org/2000/svg">
<path d="M19.8747 18.75C19.8748 19.2426 19.767 19.7293 19.559 20.1758C19.3509 20.6223 19.0477 21.0179 18.6705 21.3347C18.2933 21.6515 17.8513 21.882 17.3756 22.0098C16.8999 22.1377 16.4019 22.1598 15.9167 22.0747C15.4315 21.9896 14.9708 21.7994 14.567 21.5173C14.1631 21.2352 13.826 20.8681 13.5791 20.4418C13.3322 20.0155 13.1817 19.5404 13.138 19.0497C13.0943 18.559 13.1586 18.0648 13.3263 17.6016L8.35752 14.4094C7.88296 14.8749 7.28152 15.1899 6.62863 15.3148C5.97574 15.4398 5.30048 15.3692 4.68757 15.1118C4.07466 14.8545 3.5514 14.4219 3.18342 13.8683C2.81544 13.3147 2.61914 12.6648 2.61914 12C2.61914 11.3353 2.81544 10.6853 3.18342 10.1317C3.5514 9.57813 4.07466 9.14552 4.68757 8.88818C5.30048 8.63084 5.97574 8.56022 6.62863 8.68519C7.28152 8.81016 7.88296 9.12515 8.35752 9.59064L13.3263 6.40314C13.0417 5.62131 13.0553 4.76205 13.3642 3.98956C13.6732 3.21707 14.256 2.5855 15.0012 2.21554C15.7464 1.84559 16.6018 1.76318 17.404 1.98406C18.2061 2.20495 18.8987 2.71364 19.3495 3.41294C19.8003 4.11223 19.9776 4.95311 19.8476 5.77488C19.7175 6.59665 19.2893 7.3417 18.6446 7.86766C18 8.39362 17.1841 8.66363 16.353 8.62607C15.5218 8.58851 14.7337 8.24604 14.1391 7.66408L9.17033 10.8563C9.43887 11.5983 9.43887 12.4111 9.17033 13.1531L14.1391 16.3453C14.6135 15.881 15.2143 15.567 15.8662 15.4424C16.5182 15.3178 17.1925 15.3882 17.8046 15.6449C18.4168 15.9015 18.9397 16.333 19.3079 16.8853C19.6761 17.4376 19.8733 18.0862 19.8747 18.75Z" fill="#E6E6E6"/>
</svg>
