<svg width="25" height="24" viewBox="0 0 25 24" fill="none" xmlns="http://www.w3.org/2000/svg">
<path d="M6.51126 13.8563C6.5138 13.9071 6.50599 13.9578 6.48828 14.0055C6.47058 14.0532 6.44336 14.0968 6.40828 14.1336C6.3732 14.1705 6.331 14.1998 6.28423 14.2198C6.23747 14.2398 6.18712 14.2501 6.13626 14.25H2.00001C1.83073 14.2503 1.66634 14.1932 1.53358 14.0882C1.40081 13.9832 1.30748 13.8364 1.26876 13.6716C1.24465 13.5588 1.24576 13.442 1.27202 13.3297C1.29827 13.2174 1.34902 13.1123 1.42064 13.0219C2.08233 12.1444 2.96028 11.4534 3.96876 11.0166C3.526 10.6129 3.18642 10.109 2.97846 9.54707C2.77049 8.98516 2.7002 8.38159 2.77346 7.78693C2.84672 7.19226 3.06141 6.62381 3.39955 6.12918C3.73768 5.63455 4.18941 5.22814 4.71691 4.94399C5.24441 4.65984 5.83232 4.50623 6.43139 4.49601C7.03047 4.4858 7.62327 4.61928 8.16015 4.88528C8.69703 5.15128 9.16235 5.54206 9.51715 6.02487C9.87195 6.50769 10.1059 7.0685 10.1994 7.66032C10.2115 7.7399 10.1972 7.82125 10.1588 7.89199C10.1204 7.96273 10.0599 8.01898 9.98657 8.05219C8.94631 8.53311 8.06532 9.30154 7.44755 10.2668C6.82977 11.2321 6.50099 12.354 6.50001 13.5C6.50001 13.62 6.50001 13.7381 6.51126 13.8563ZM23.5738 13.0209C22.9136 12.1444 22.0376 11.4539 21.0313 11.0166C21.474 10.6129 21.8136 10.109 22.0216 9.54707C22.2295 8.98516 22.2998 8.38159 22.2266 7.78693C22.1533 7.19226 21.9386 6.62381 21.6005 6.12918C21.2623 5.63455 20.8106 5.22814 20.2831 4.94399C19.7556 4.65984 19.1677 4.50623 18.5686 4.49601C17.9696 4.4858 17.3768 4.61928 16.8399 4.88528C16.303 5.15128 15.8377 5.54206 15.4829 6.02487C15.1281 6.50769 14.8941 7.0685 14.8006 7.66032C14.7886 7.7399 14.8028 7.82125 14.8412 7.89199C14.8796 7.96273 14.9401 8.01898 15.0134 8.05219C16.0537 8.53311 16.9347 9.30154 17.5525 10.2668C18.1702 11.2321 18.499 12.354 18.5 13.5C18.5 13.62 18.5 13.7381 18.4888 13.8563C18.4862 13.9071 18.494 13.9578 18.5117 14.0055C18.5294 14.0532 18.5567 14.0968 18.5917 14.1336C18.6268 14.1705 18.669 14.1998 18.7158 14.2198C18.7626 14.2398 18.8129 14.2501 18.8638 14.25H23C23.1693 14.2503 23.3337 14.1932 23.4664 14.0882C23.5992 13.9832 23.6925 13.8364 23.7313 13.6716C23.7555 13.5586 23.7544 13.4416 23.728 13.3291C23.7015 13.2166 23.6505 13.1113 23.5784 13.0209H23.5738ZM15.23 17.0691C15.9768 16.4972 16.5256 15.7056 16.7992 14.8057C17.0729 13.9058 17.0577 12.9428 16.7558 12.0519C16.4538 11.1611 15.8804 10.3873 15.1159 9.83922C14.3515 9.29117 13.4345 8.99642 12.4939 8.99642C11.5533 8.99642 10.6364 9.29117 9.87191 9.83922C9.10747 10.3873 8.53399 11.1611 8.23206 12.0519C7.93012 12.9428 7.91493 13.9058 8.1886 14.8057C8.46227 15.7056 9.01106 16.4972 9.75782 17.0691C8.4327 17.6432 7.3262 18.6265 6.60032 19.875C6.53449 19.989 6.49983 20.1184 6.49984 20.25C6.49985 20.3817 6.53452 20.5111 6.60036 20.6251C6.66621 20.7391 6.76091 20.8338 6.87495 20.8996C6.98899 20.9654 7.11834 21 7.25001 21H17.75C17.8817 21 18.011 20.9654 18.1251 20.8996C18.2391 20.8338 18.3338 20.7391 18.3997 20.6251C18.4655 20.5111 18.5002 20.3817 18.5002 20.25C18.5002 20.1184 18.4655 19.989 18.3997 19.875C17.6723 18.6257 16.5637 17.6423 15.2366 17.0691H15.23Z" fill="#F12E36"/>
</svg>
