<svg width="25" height="24" viewBox="0 0 25 24" fill="none" xmlns="http://www.w3.org/2000/svg">
<path d="M12.5 11.25C11.6842 11.25 10.8866 11.0081 10.2083 10.5548C9.52992 10.1016 9.00121 9.45732 8.689 8.70357C8.37679 7.94983 8.2951 7.12043 8.45426 6.32025C8.61343 5.52008 9.00629 4.78508 9.58319 4.20819C10.1601 3.63129 10.8951 3.23843 11.6953 3.07926C12.4954 2.9201 13.3248 3.00179 14.0786 3.314C14.8323 3.62621 15.4766 4.15492 15.9298 4.83327C16.3831 5.51163 16.625 6.30915 16.625 7.125C16.6238 8.21864 16.1888 9.26713 15.4154 10.0404C14.6421 10.8138 13.5936 11.2488 12.5 11.25ZM18.125 12C17.3092 12 16.5116 12.2419 15.8333 12.6952C15.1549 13.1485 14.6262 13.7927 14.314 14.5464C14.0018 15.3002 13.9201 16.1296 14.0793 16.9297C14.2384 17.7299 14.6313 18.4649 15.2082 19.0418C15.7851 19.6187 16.5201 20.0116 17.3203 20.1707C18.1204 20.3299 18.9498 20.2482 19.7036 19.936C20.4573 19.6238 21.1016 19.0951 21.5548 18.4167C22.0081 17.7384 22.25 16.9408 22.25 16.125C22.2488 15.0314 21.8138 13.9829 21.0404 13.2096C20.2671 12.4362 19.2186 12.0012 18.125 12ZM6.875 12C6.05915 12 5.26163 12.2419 4.58327 12.6952C3.90492 13.1485 3.37621 13.7927 3.064 14.5464C2.75179 15.3002 2.6701 16.1296 2.82926 16.9297C2.98843 17.7299 3.38129 18.4649 3.95819 19.0418C4.53508 19.6187 5.27008 20.0116 6.07025 20.1707C6.87043 20.3299 7.69983 20.2482 8.45357 19.936C9.20732 19.6238 9.85155 19.0951 10.3048 18.4167C10.7581 17.7384 11 16.9408 11 16.125C10.9988 15.0314 10.5638 13.9829 9.79045 13.2096C9.01713 12.4362 7.96864 12.0012 6.875 12Z" fill="#E6E6E6"/>
</svg>
