<svg width="25" height="24" viewBox="0 0 25 24" fill="none" xmlns="http://www.w3.org/2000/svg">
<path d="M20.75 12.2025C20.7538 12.0675 20.7538 11.9325 20.75 11.7975L22.1488 10.05C22.2221 9.95825 22.2729 9.85055 22.297 9.73559C22.3211 9.62062 22.3179 9.50161 22.2875 9.38812C22.0578 8.52633 21.7148 7.6988 21.2675 6.92719C21.2089 6.82623 21.1276 6.74036 21.0299 6.67639C20.9322 6.61243 20.821 6.57215 20.705 6.55875L18.4813 6.31125C18.3888 6.21375 18.295 6.12 18.2 6.03L17.9375 3.80062C17.924 3.68457 17.8836 3.57328 17.8195 3.47562C17.7554 3.37796 17.6693 3.29663 17.5682 3.23812C16.7966 2.79117 15.969 2.44879 15.1072 2.22C14.9937 2.18968 14.8747 2.18644 14.7598 2.21054C14.6448 2.23464 14.5371 2.2854 14.4454 2.35875L12.7025 3.75C12.5675 3.75 12.4325 3.75 12.2975 3.75L10.55 2.35406C10.4583 2.28072 10.3506 2.22995 10.2356 2.20585C10.1207 2.18175 10.0017 2.18499 9.88817 2.21531C9.02637 2.44502 8.19884 2.78801 7.42723 3.23531C7.32628 3.29393 7.2404 3.3753 7.17644 3.47296C7.11248 3.57061 7.07219 3.68184 7.05879 3.79781L6.81129 6.02531C6.71379 6.11843 6.62004 6.21218 6.53004 6.30656L4.30067 6.5625C4.18462 6.576 4.07333 6.61643 3.97567 6.68056C3.87801 6.74469 3.79668 6.83075 3.73817 6.93187C3.29131 7.70359 2.94864 8.5311 2.71911 9.39281C2.68891 9.50636 2.68583 9.62542 2.71009 9.74039C2.73435 9.85536 2.78529 9.96302 2.85879 10.0547L4.25004 11.7975C4.25004 11.9325 4.25004 12.0675 4.25004 12.2025L2.85411 13.95C2.78076 14.0417 2.73 14.1494 2.7059 14.2644C2.6818 14.3794 2.68504 14.4984 2.71536 14.6119C2.94507 15.4737 3.28806 16.3012 3.73536 17.0728C3.79397 17.1738 3.87535 17.2596 3.973 17.3236C4.07065 17.3876 4.18189 17.4278 4.29786 17.4412L6.52161 17.6887C6.61473 17.7862 6.70848 17.88 6.80286 17.97L7.06254 20.1994C7.07605 20.3154 7.11647 20.4267 7.1806 20.5244C7.24473 20.622 7.33079 20.7034 7.43192 20.7619C8.20363 21.2087 9.03114 21.5514 9.89286 21.7809C10.0064 21.8111 10.1255 21.8142 10.2404 21.79C10.3554 21.7657 10.4631 21.7148 10.5547 21.6412L12.2975 20.25C12.4325 20.2537 12.5675 20.2537 12.7025 20.25L14.45 21.6487C14.5418 21.7221 14.6495 21.7729 14.7645 21.797C14.8794 21.8211 14.9984 21.8178 15.1119 21.7875C15.9739 21.5582 16.8014 21.2152 17.5729 20.7675C17.6738 20.7089 17.7597 20.6275 17.8236 20.5299C17.8876 20.4322 17.9279 20.321 17.9413 20.205L18.1888 17.9812C18.2863 17.8887 18.38 17.795 18.47 17.7L20.6994 17.4375C20.8155 17.424 20.9268 17.3836 21.0244 17.3194C21.1221 17.2553 21.2034 17.1693 21.2619 17.0681C21.7088 16.2964 22.0515 15.4689 22.281 14.6072C22.3112 14.4936 22.3143 14.3746 22.29 14.2596C22.2657 14.1446 22.2148 14.037 22.1413 13.9453L20.75 12.2025ZM12.5 15.75C11.7584 15.75 11.0333 15.5301 10.4167 15.118C9.79997 14.706 9.31932 14.1203 9.03549 13.4351C8.75167 12.7498 8.6774 11.9958 8.8221 11.2684C8.96679 10.541 9.32395 9.87279 9.84839 9.34835C10.3728 8.8239 11.041 8.46675 11.7685 8.32205C12.4959 8.17736 13.2499 8.25162 13.9351 8.53545C14.6203 8.81928 15.206 9.29992 15.6181 9.91661C16.0301 10.5333 16.25 11.2583 16.25 12C16.25 12.9946 15.855 13.9484 15.1517 14.6516C14.4484 15.3549 13.4946 15.75 12.5 15.75Z" fill="#E6E6E6"/>
</svg>
